<mxfile host="65bd71144e">
    <diagram id="PeprKiohcq86Uv-76-n9" name="Page-1">
        <mxGraphModel dx="810" dy="617" grid="1" gridSize="10" guides="1" tooltips="1" connect="1" arrows="1" fold="1" page="1" pageScale="1" pageWidth="850" pageHeight="1100" math="0" shadow="0">
            <root>
                <mxCell id="0"/>
                <mxCell id="1" parent="0"/>
                <object label="QA" Dev="" id="2">
                    <mxCell style="shape=umlActor;verticalLabelPosition=bottom;verticalAlign=top;html=1;outlineConnect=0;" parent="1" vertex="1">
                        <mxGeometry x="290" y="80" width="30" height="60" as="geometry"/>
                    </mxCell>
                </object>
                <mxCell id="3" value="" style="html=1;rounded=0;labelBackgroundColor=none;align=left;spacingLeft=5;endArrow=open;endFill=0;" parent="1" edge="1">
                    <mxGeometry relative="1" as="geometry">
                        <mxPoint x="340" y="109.5" as="sourcePoint"/>
                        <mxPoint x="420" y="109.5" as="targetPoint"/>
                    </mxGeometry>
                </mxCell>
                <mxCell id="4" value="Commit" style="html=1;" parent="1" vertex="1">
                    <mxGeometry x="350" y="90" width="50" height="16" as="geometry"/>
                </mxCell>
                <mxCell id="5" value="Selenium" style="html=1;rounded=1;absoluteArcSize=1;arcSize=10;" parent="1" vertex="1">
                    <mxGeometry x="420" y="95" width="100" height="30" as="geometry"/>
                </mxCell>
                <mxCell id="6" value="Rollback(If needed)" style="html=1;rounded=1;absoluteArcSize=1;arcSize=10;" parent="1" vertex="1">
                    <mxGeometry x="560" y="95" width="100" height="30" as="geometry"/>
                </mxCell>
                <mxCell id="7" value="" style="html=1;rounded=0;labelBackgroundColor=none;align=left;spacingLeft=5;endArrow=open;endFill=0;" parent="1" source="5" target="6" edge="1">
                    <mxGeometry relative="1" as="geometry"/>
                </mxCell>
                <mxCell id="8" value="" style="html=1;rounded=0;labelBackgroundColor=none;align=left;spacingLeft=5;endArrow=open;endFill=0;entryX=0.5;entryY=0;entryDx=0;entryDy=0;" parent="1" target="10" edge="1">
                    <mxGeometry relative="1" as="geometry">
                        <mxPoint x="469.5" y="125" as="sourcePoint"/>
                        <mxPoint x="469.5" y="205.5" as="targetPoint"/>
                    </mxGeometry>
                </mxCell>
                <mxCell id="9" value="" style="group;" parent="1" vertex="1" connectable="0">
                    <mxGeometry x="420" y="160" width="100" height="95" as="geometry"/>
                </mxCell>
                <mxCell id="10" value="VAPT" style="html=1;rounded=1;absoluteArcSize=1;arcSize=10;" parent="9" vertex="1">
                    <mxGeometry width="100" height="30" as="geometry"/>
                </mxCell>
                <mxCell id="11" value="JMeter" style="html=1;rounded=1;absoluteArcSize=1;arcSize=10;" parent="9" vertex="1">
                    <mxGeometry y="65" width="100" height="30" as="geometry"/>
                </mxCell>
                <mxCell id="12" value="" style="html=1;rounded=0;labelBackgroundColor=none;align=left;spacingLeft=5;endArrow=open;endFill=0;" parent="9" source="10" target="11" edge="1">
                    <mxGeometry relative="1" as="geometry"/>
                </mxCell>
                <mxCell id="13" value="" style="html=1;rounded=0;labelBackgroundColor=none;align=left;spacingLeft=5;endArrow=open;endFill=0;entryX=0.5;entryY=0;entryDx=0;entryDy=0;" parent="1" target="14" edge="1">
                    <mxGeometry relative="1" as="geometry">
                        <mxPoint x="719.5" y="125" as="sourcePoint"/>
                        <mxPoint x="720" y="160" as="targetPoint"/>
                    </mxGeometry>
                </mxCell>
                <mxCell id="14" value="Prometheus" style="html=1;rounded=1;absoluteArcSize=1;arcSize=10;" parent="1" vertex="1">
                    <mxGeometry x="700" y="95" width="100" height="30" as="geometry"/>
                </mxCell>
                <mxCell id="15" value="Kiali" style="html=1;rounded=1;absoluteArcSize=1;arcSize=10;" parent="1" vertex="1">
                    <mxGeometry x="700" y="160" width="100" height="30" as="geometry"/>
                </mxCell>
                <mxCell id="16" value="" style="html=1;rounded=0;labelBackgroundColor=none;align=left;spacingLeft=5;endArrow=open;endFill=0;" parent="1" source="14" target="15" edge="1">
                    <mxGeometry relative="1" as="geometry"/>
                </mxCell>
                <mxCell id="17" value="Grafana" style="html=1;rounded=1;absoluteArcSize=1;arcSize=10;" parent="1" vertex="1">
                    <mxGeometry x="700" y="220" width="100" height="30" as="geometry"/>
                </mxCell>
                <mxCell id="19" value="Reports" style="html=1;rounded=1;absoluteArcSize=1;arcSize=10;" parent="1" vertex="1">
                    <mxGeometry x="420" y="290" width="100" height="30" as="geometry"/>
                </mxCell>
                <mxCell id="20" value="" style="html=1;rounded=0;labelBackgroundColor=none;align=left;spacingLeft=5;endArrow=open;endFill=0;" parent="1" target="19" edge="1">
                    <mxGeometry relative="1" as="geometry">
                        <mxPoint x="470" y="255" as="sourcePoint"/>
                    </mxGeometry>
                </mxCell>
                <mxCell id="22" value="" style="html=1;rounded=0;labelBackgroundColor=none;align=left;spacingLeft=5;endArrow=open;endFill=0;" parent="1" edge="1">
                    <mxGeometry relative="1" as="geometry">
                        <mxPoint x="720" y="320" as="sourcePoint"/>
                        <mxPoint x="720" y="320" as="targetPoint"/>
                    </mxGeometry>
                </mxCell>
                <mxCell id="23" value="" style="html=1;verticalAlign=bottom;labelBackgroundColor=none;endArrow=block;endFill=1;dashed=1;exitX=0;exitY=0.5;exitDx=0;exitDy=0;entryX=0.5;entryY=0;entryDx=0;entryDy=0;" parent="1" source="10" target="24" edge="1">
                    <mxGeometry width="160" relative="1" as="geometry">
                        <mxPoint x="370" y="180" as="sourcePoint"/>
                        <mxPoint x="370" y="210" as="targetPoint"/>
                        <Array as="points">
                            <mxPoint x="340" y="175"/>
                        </Array>
                    </mxGeometry>
                </mxCell>
                <mxCell id="24" value="Mail/Notify" style="ellipse;" parent="1" vertex="1">
                    <mxGeometry x="300" y="220" width="80" height="35" as="geometry"/>
                </mxCell>
                <mxCell id="25" value="" style="html=1;verticalAlign=bottom;labelBackgroundColor=none;endArrow=block;endFill=1;dashed=1;" parent="1" edge="1">
                    <mxGeometry width="160" relative="1" as="geometry">
                        <mxPoint x="420" y="237" as="sourcePoint"/>
                        <mxPoint x="380" y="237" as="targetPoint"/>
                        <Array as="points">
                            <mxPoint x="380" y="237"/>
                        </Array>
                    </mxGeometry>
                </mxCell>
                <mxCell id="26" value="" style="html=1;verticalAlign=bottom;labelBackgroundColor=none;endArrow=block;endFill=1;dashed=1;" parent="1" edge="1">
                    <mxGeometry width="160" relative="1" as="geometry">
                        <mxPoint x="700" y="175" as="sourcePoint"/>
                        <mxPoint x="670" y="410" as="targetPoint"/>
                        <Array as="points">
                            <mxPoint x="670" y="175"/>
                        </Array>
                    </mxGeometry>
                </mxCell>
                <mxCell id="27" value="" style="html=1;verticalAlign=bottom;labelBackgroundColor=none;endArrow=block;endFill=1;dashed=1;entryX=0.5;entryY=1;entryDx=0;entryDy=0;" parent="1" target="24" edge="1">
                    <mxGeometry width="160" relative="1" as="geometry">
                        <mxPoint x="670" y="410" as="sourcePoint"/>
                        <mxPoint x="340" y="410" as="targetPoint"/>
                        <Array as="points">
                            <mxPoint x="340" y="410"/>
                        </Array>
                    </mxGeometry>
                </mxCell>
                <mxCell id="28" value="" style="html=1;verticalAlign=bottom;labelBackgroundColor=none;endArrow=block;endFill=1;dashed=1;" parent="1" edge="1">
                    <mxGeometry width="160" relative="1" as="geometry">
                        <mxPoint x="700" y="234.5" as="sourcePoint"/>
                        <mxPoint x="670" y="234.5" as="targetPoint"/>
                        <Array as="points">
                            <mxPoint x="670" y="234.5"/>
                        </Array>
                    </mxGeometry>
                </mxCell>
                <mxCell id="43" value="Manifest Repo" style="html=1;rounded=1;absoluteArcSize=1;arcSize=10;" parent="1" vertex="1">
                    <mxGeometry x="160" y="90" width="100" height="30" as="geometry"/>
                </mxCell>
                <mxCell id="44" value="Update Charts" style="html=1;rounded=1;absoluteArcSize=1;arcSize=10;" parent="1" vertex="1">
                    <mxGeometry x="160" y="155" width="100" height="30" as="geometry"/>
                </mxCell>
                <mxCell id="45" value="ArgoCD" style="html=1;rounded=1;absoluteArcSize=1;arcSize=10;" parent="1" vertex="1">
                    <mxGeometry x="160" y="220" width="100" height="30" as="geometry"/>
                </mxCell>
                <mxCell id="46" value="Deploy Charts" style="html=1;rounded=1;absoluteArcSize=1;arcSize=10;" parent="1" vertex="1">
                    <mxGeometry x="160" y="285" width="100" height="30" as="geometry"/>
                </mxCell>
                <mxCell id="47" value="" style="html=1;rounded=0;labelBackgroundColor=none;align=left;spacingLeft=5;endArrow=open;endFill=0;entryX=0.5;entryY=0;entryDx=0;entryDy=0;" parent="1" edge="1">
                    <mxGeometry relative="1" as="geometry">
                        <mxPoint x="209.5" y="120" as="sourcePoint"/>
                        <mxPoint x="210" y="155" as="targetPoint"/>
                    </mxGeometry>
                </mxCell>
                <mxCell id="48" value="" style="html=1;rounded=0;labelBackgroundColor=none;align=left;spacingLeft=5;endArrow=open;endFill=0;exitX=0.5;exitY=1;exitDx=0;exitDy=0;" parent="1" source="44" edge="1">
                    <mxGeometry relative="1" as="geometry">
                        <mxPoint x="209.5" y="190" as="sourcePoint"/>
                        <mxPoint x="209.5" y="220" as="targetPoint"/>
                    </mxGeometry>
                </mxCell>
                <mxCell id="49" value="" style="html=1;rounded=0;labelBackgroundColor=none;align=left;spacingLeft=5;endArrow=open;endFill=0;exitX=0.5;exitY=1;exitDx=0;exitDy=0;" parent="1" source="45" edge="1">
                    <mxGeometry relative="1" as="geometry">
                        <mxPoint x="210" y="255" as="sourcePoint"/>
                        <mxPoint x="209.5" y="285" as="targetPoint"/>
                    </mxGeometry>
                </mxCell>
                <mxCell id="50" value="" style="html=1;rounded=0;labelBackgroundColor=none;align=left;spacingLeft=5;endArrow=open;endFill=0;" parent="1" edge="1">
                    <mxGeometry relative="1" as="geometry">
                        <mxPoint x="260" y="104.5" as="sourcePoint"/>
                        <mxPoint x="290" y="104.5" as="targetPoint"/>
                    </mxGeometry>
                </mxCell>
                <mxCell id="51" value="" style="html=1;rounded=0;labelBackgroundColor=none;align=left;spacingLeft=5;endArrow=open;endFill=0;" parent="1" edge="1">
                    <mxGeometry relative="1" as="geometry">
                        <mxPoint x="660" y="109.5" as="sourcePoint"/>
                        <mxPoint x="700" y="109.5" as="targetPoint"/>
                    </mxGeometry>
                </mxCell>
                <mxCell id="52" value="" style="html=1;rounded=0;labelBackgroundColor=none;align=left;spacingLeft=5;endArrow=open;endFill=0;" parent="1" edge="1">
                    <mxGeometry relative="1" as="geometry">
                        <mxPoint x="749.5" y="192.5" as="sourcePoint"/>
                        <mxPoint x="749.5" y="222.5" as="targetPoint"/>
                    </mxGeometry>
                </mxCell>
            </root>
        </mxGraphModel>
    </diagram>
</mxfile>